<svg xmlns="http://www.w3.org/2000/svg" width="1200" height="650" viewBox="0 0 1200 650" role="img" aria-label="CyberShield operational trust workflow visual reference">
<title>CyberShield operational trust workflow visual reference</title>
<desc>Builder reference derived from the supplied light operational trust workflow image. Use for Architecture and doctrine explanation only. Do not replace the TrustMap with this process flow.</desc>
<defs><style>.bg{fill:#f8fbff}.blue{stroke:#1675d1;fill:none;stroke-width:2}.card{fill:white;stroke:#dbe6f0;stroke-width:1.5}.txt{fill:#0b1830;font:700 17px Arial}.small{fill:#1f3450;font:13px Arial}.head{fill:#0069c9;font:700 18px Arial;letter-spacing:1px}.node{fill:white;stroke:#074c91;stroke-width:3}.num{fill:#074c91}.foundation{fill:white;stroke:#dbe6f0;stroke-width:1.5}</style></defs>
<rect class="bg" width="1200" height="650"/>
<text class="head" x="46" y="48">INPUTS</text><text class="txt" x="46" y="75">Operational Environment</text>
<g transform="translate(46 110)"><rect class="card" width="230" height="54" rx="10"/><text class="txt" x="66" y="28">Cloud &amp; Infrastructure</text><text class="small" x="66" y="45">multi-cloud, hybrid, on-prem</text><path class="blue" d="M20 36c8-17 35-14 38 3h14"/></g>
<g transform="translate(46 184)"><rect class="card" width="230" height="54" rx="10"/><text class="txt" x="66" y="28">Identities &amp; Access</text><text class="small" x="66" y="45">users, roles, privileges</text><circle cx="25" cy="26" r="9" class="blue"/><circle cx="44" cy="28" r="7" class="blue"/></g>
<g transform="translate(46 258)"><rect class="card" width="230" height="54" rx="10"/><text class="txt" x="66" y="28">Applications &amp; Data</text><text class="small" x="66" y="45">SaaS, custom apps, databases</text><circle cx="24" cy="26" r="4" fill="#074c91"/><circle cx="44" cy="18" r="4" fill="#074c91"/><circle cx="44" cy="34" r="4" fill="#074c91"/></g>
<g transform="translate(46 332)"><rect class="card" width="230" height="54" rx="10"/><text class="txt" x="66" y="28">AI Systems &amp; Agents</text><text class="small" x="66" y="45">models, copilots, automation</text><rect x="18" y="16" width="38" height="28" rx="8" class="blue"/></g>
<g transform="translate(46 406)"><rect class="card" width="230" height="54" rx="10"/><text class="txt" x="66" y="28">Third Parties &amp; Vendors</text><text class="small" x="66" y="45">partners, suppliers, contractors</text><path class="blue" d="M20 42h38M25 20h28M25 20v22M35 20v22M45 20v22"/></g>
<g transform="translate(46 480)"><rect class="card" width="230" height="54" rx="10"/><text class="txt" x="66" y="28">Devices &amp; Endpoints</text><text class="small" x="66" y="45">workstations, mobile, IoT</text><rect x="18" y="16" width="38" height="26" class="blue"/></g>
<g transform="translate(600 285)"><circle r="96" fill="#061c33" stroke="#0e78d6" stroke-width="5"/><circle r="75" fill="none" stroke="#6ec7ff" stroke-opacity=".35"/><text x="0" y="-4" text-anchor="middle" fill="white" font="700 31px Arial">CYBERSHIELD</text><text x="0" y="28" text-anchor="middle" fill="#4fc8ff" font="17px Arial">OPERATIONAL TRUST</text><text x="0" y="50" text-anchor="middle" fill="#4fc8ff" font="17px Arial">ENGINE</text></g>
<path class="blue" d="M276 137C365 137 390 285 500 285"/><path class="blue" d="M276 211C365 211 390 285 500 285"/><path class="blue" d="M276 285H500"/><path class="blue" d="M276 359C365 359 390 285 500 285"/><path class="blue" d="M276 433C365 433 390 285 500 285"/><path class="blue" d="M276 507C365 507 390 285 500 285"/>
<g><circle class="node" cx="600" cy="100" r="40"/><circle cx="600" cy="73" r="14" class="num"/><text x="600" y="79" text-anchor="middle" fill="white" font="700 15px Arial">1</text><text class="txt" x="655" y="92">DISCOVER</text><text class="small" x="655" y="115">assets, connections, dependencies</text></g>
<g><circle class="node" cx="790" cy="175" r="40"/><circle cx="790" cy="148" r="14" class="num"/><text x="790" y="154" text-anchor="middle" fill="white" font="700 15px Arial">2</text><text class="txt" x="845" y="167">ANALYZE</text><text class="small" x="845" y="190">risk, trust, governance gaps</text></g>
<g><circle class="node" cx="790" cy="390" r="40"/><circle cx="790" cy="363" r="14" class="num"/><text x="790" y="369" text-anchor="middle" fill="white" font="700 15px Arial">3</text><text class="txt" x="845" y="382">GOVERN</text><text class="small" x="845" y="405">policy, guardrails, controls</text></g>
<g><circle class="node" cx="600" cy="500" r="40"/><circle cx="600" cy="473" r="14" class="num"/><text x="600" y="479" text-anchor="middle" fill="white" font="700 15px Arial">4</text><text class="txt" x="655" y="492">VALIDATE</text><text class="small" x="655" y="515">admissibility and consequence impact</text></g>
<g><circle class="node" cx="410" cy="390" r="40"/><circle cx="410" cy="363" r="14" class="num"/><text x="410" y="369" text-anchor="middle" fill="white" font="700 15px Arial">5</text><text class="txt" x="250" y="382">MONITOR</text><text class="small" x="250" y="405">runtime behavior and emerging risk</text></g>
<g><circle class="node" cx="410" cy="175" r="40"/><circle cx="410" cy="148" r="14" class="num"/><text x="410" y="154" text-anchor="middle" fill="white" font="700 15px Arial">6</text><text class="txt" x="250" y="167">RESPOND</text><text class="small" x="250" y="190">orchestrate remediation</text></g>
<path class="blue" stroke-dasharray="6 5" d="M600 140C680 150 755 190 780 275C790 370 720 470 640 493C540 515 445 470 420 390C390 285 450 190 560 120"/>
<text class="head" x="990" y="48">OUTCOMES</text><text class="txt" x="960" y="75">Executive Visibility &amp; Control</text>
<g transform="translate(950 110)"><rect class="card" width="210" height="52" rx="10"/><text class="txt" x="56" y="26">Operational Trust Score</text><text class="small" x="56" y="43">trust posture across environment</text></g>
<g transform="translate(950 188)"><rect class="card" width="210" height="52" rx="10"/><text class="txt" x="56" y="26">Risk &amp; Exposure Clarity</text><text class="small" x="56" y="43">context and business impact</text></g>
<g transform="translate(950 266)"><rect class="card" width="210" height="52" rx="10"/><text class="txt" x="56" y="26">Governance Assurance</text><text class="small" x="56" y="43">policy and control effectiveness</text></g>
<g transform="translate(950 344)"><rect class="card" width="210" height="52" rx="10"/><text class="txt" x="56" y="26">Runtime Admissibility</text><text class="small" x="56" y="43">validate actions and automation</text></g>
<g transform="translate(950 422)"><rect class="card" width="210" height="52" rx="10"/><text class="txt" x="56" y="26">Accountability</text><text class="small" x="56" y="43">ownership and decision trails</text></g>
<path class="blue" d="M700 285C820 285 850 137 950 137M700 285C820 285 850 214 950 214M700 285H950M700 285C820 285 850 371 950 371M700 285C820 285 850 449 950 449"/>
<rect x="220" y="570" width="760" height="58" rx="12" class="foundation"/><text class="head" x="600" y="553" text-anchor="middle">TRUST FOUNDATION</text><text class="small" x="255" y="603">Identity-Centric Security</text><text class="small" x="430" y="603">Evidence Substrate</text><text class="small" x="590" y="603">AI Governance</text><text class="small" x="735" y="603">Policy &amp; Compliance</text><text class="small" x="880" y="603">Privacy &amp; Data</text>
</svg>
