<svg xmlns="http://www.w3.org/2000/svg" width="1200" height="800" viewBox="0 0 1200 800" role="img" aria-label="CyberShield TrustMap radar constellation visual reference">
<title>CyberShield TrustMap radar constellation visual reference</title>
<desc>Builder reference derived from the supplied dark TrustMap: dark executive command surface, central shield trust kernel, side panels outside the map, radar rings, constellation nodes, straight weighted connectors, neon-blue structure, and trust status colors.</desc>
<defs><radialGradient id="bg" cx="50%" cy="50%" r="75%"><stop offset="0" stop-color="#082b47"/><stop offset="1" stop-color="#020712"/></radialGradient><filter id="glow"><feGaussianBlur stdDeviation="4" result="b"/><feMerge><feMergeNode in="b"/><feMergeNode in="SourceGraphic"/></feMerge></filter><style>.p{fill:#031322;stroke:#1688d3;stroke-opacity:.55}.t{fill:white;font:700 26px Arial}.s{fill:#8bd8ff;font:14px Arial}.r{fill:none;stroke:#27cfff;stroke-opacity:.18;stroke-width:2}.e{stroke:#30ccff;stroke-width:2;opacity:.55}.d{fill:#07233d;stroke:#24cfff;stroke-width:2;filter:url(#glow)}.n{filter:url(#glow);stroke:white;stroke-width:1.5}.g{fill:#22d68b}.y{fill:#f5b41b}.o{fill:#ff7a28}.x{fill:#ff3434}.l{fill:#eaf8ff;font:15px Arial;text-anchor:middle}</style></defs>
<rect width="1200" height="800" fill="url(#bg)"/>
<rect x="18" y="28" width="250" height="78" rx="12" class="p"/><text x="38" y="72" class="t">TRUST MAP</text><text x="38" y="94" class="s">OPERATIONAL TRUST VISIBILITY</text>
<rect x="18" y="124" width="250" height="190" rx="12" class="p"/><text x="38" y="154" class="s">ORGANIZATIONAL TRUST SCORE</text><circle cx="102" cy="226" r="54" fill="none" stroke="#07395a" stroke-width="14"/><path d="M102 172a54 54 0 1 1-38 92" fill="none" stroke="#18d486" stroke-width="14"/><text x="72" y="244" fill="#fff" font="700 48px Arial">78</text>
<rect x="18" y="330" width="250" height="390" rx="12" class="p"/><text x="38" y="362" class="s">TOP RISK DRIVERS</text><text x="54" y="410" fill="#fff" font="15px Arial">Unverified AI Tool Access</text><text x="54" y="454" fill="#fff" font="15px Arial">Third-Party Data Sharing</text><text x="54" y="498" fill="#fff" font="15px Arial">Excessive Admin Privileges</text>
<rect x="932" y="124" width="250" height="190" rx="12" class="p"/><text x="952" y="154" class="s">TRUST LEVEL DISTRIBUTION</text><circle cx="1012" cy="226" r="54" fill="none" stroke="#22d68b" stroke-width="16"/><path d="M1012 172a54 54 0 0 1 48 78" fill="none" stroke="#ffd166" stroke-width="16"/>
<rect x="932" y="330" width="250" height="230" rx="12" class="p"/><text x="952" y="362" class="s">ACTIVE RISKS</text><text x="966" y="410" fill="#fff" font="15px Arial">Unverified AI Tool Access</text><text x="966" y="454" fill="#fff" font="15px Arial">Vendor Data Sharing</text><text x="966" y="498" fill="#fff" font="15px Arial">Shadow SaaS Usage</text>
<rect x="932" y="580" width="250" height="140" rx="12" class="p"/><text x="952" y="612" class="s">TREND OVER TIME</text><polyline points="970,680 1000,660 1030,668 1060,640 1090,653 1120,632" fill="none" stroke="#24cfff" stroke-width="4" filter="url(#glow)"/>
<text x="600" y="52" fill="#37cfff" font="22px Arial" text-anchor="middle">ENTERPRISE TRUST MAP</text>
<g transform="translate(600 410)"><circle r="290" class="r"/><circle r="205" class="r"/><circle r="112" class="r"/><path d="M0,-270L0,-112 M205,-205L80,-80 M270,0L112,0 M205,205L80,80 M0,270L0,112 M-205,205L-80,80 M-270,0L-112,0 M-205,-205L-80,-80" class="e"/><path d="M0,-98 L72,-58 L62,62 L0,104 L-62,62 L-72,-58 Z" fill="#041827" stroke="#2fd6ff" stroke-width="3" filter="url(#glow)"/><text y="-4" fill="#fff" font="700 24px Arial" text-anchor="middle">YOUR</text><text y="25" fill="#fff" font="17px Arial" text-anchor="middle">ORGANIZATION</text><circle cx="0" cy="-260" r="42" class="d"/><text x="0" y="-258" class="l">IDENTITY</text><circle cx="210" cy="-170" r="42" class="d"/><text x="210" y="-168" class="l">CLOUD</text><circle cx="225" cy="145" r="42" class="d"/><text x="225" y="147" class="l">THIRD</text><circle cx="0" cy="265" r="42" class="d"/><text x="0" y="267" class="l">AI</text><circle cx="-215" cy="165" r="42" class="d"/><text x="-215" y="167" class="l">DATA</text><circle cx="-250" cy="-90" r="42" class="d"/><text x="-250" y="-88" class="l">ENDPOINTS</text><circle cx="-320" cy="-20" r="13" class="n g"/><circle cx="-250" cy="-220" r="13" class="n g"/><circle cx="-140" cy="235" r="13" class="n y"/><circle cx="40" cy="350" r="13" class="n x"/><circle cx="300" cy="90" r="13" class="n y"/><circle cx="360" cy="145" r="13" class="n o"/><circle cx="300" cy="-225" r="13" class="n g"/></g>
</svg>
